<?xml version="1.0" encoding="utf-8"?>
<!-- Generator: Adobe Illustrator 25.0.0, SVG Export Plug-In . SVG Version: 6.00 Build 0)  -->
<svg version="1.1" id="Layer_1" xmlns="http://www.w3.org/2000/svg" xmlns:xlink="http://www.w3.org/1999/xlink" x="0px" y="0px"
	 viewBox="0 0 290 37.6" style="enable-background:new 0 0 290 37.6;" xml:space="preserve">
<style type="text/css">
	.st0{fill:#FD9D2E;stroke:#FD9D2E;stroke-width:2;stroke-miterlimit:10;}
</style>
<g>
	<path class="st0" d="M1.8,2h26v3.6H17v30h-4.4v-30H1.8V2z"/>
	<path class="st0" d="M32.3,2h10.9c3.6,0,6.4,0.9,8.3,2.7c2,1.8,2.9,4.2,2.9,7.2s-1,5.4-2.9,7.2c-2,1.8-4.7,2.8-8.3,2.8h-6.5v13.7
		h-4.4V2z M43.2,18.3c2.6,0,4.3-0.6,5.3-1.9c1-1.2,1.5-2.8,1.5-4.5s-0.5-3.3-1.5-4.5c-1-1.2-2.8-1.8-5.3-1.8h-6.5v12.7H43.2z
		 M43.1,20.1l4.4-0.7l8.8,16.2h-4.9L43.1,20.1z"/>
	<path class="st0" d="M70,1.7h4l12.8,33.8h-4.6l-9.2-25.4c-0.2-0.5-0.3-1-0.5-1.5c-0.1-0.5-0.3-1-0.4-1.5h-0.2
		c-0.1,0.5-0.2,1-0.4,1.5c-0.1,0.5-0.3,1-0.5,1.5l-9.3,25.4h-4.4L70,1.7z M64.1,23.2h15.8l1.3,3.6H62.7L64.1,23.2z"/>
	<path class="st0" d="M90.8,2h4.4v33.6h-4.4V2z"/>
	<path class="st0" d="M103.2,2h4.4v30h15.9v3.6h-20.4V2z"/>
	<path class="st0" d="M128.7,2h21.1v3.6h-16.7v10.8h14.5v3.6h-14.5v11.9h16.9v3.6h-21.3V2z"/>
	<path class="st0" d="M155.6,2h10.9c3.6,0,6.4,0.9,8.3,2.7c2,1.8,2.9,4.2,2.9,7.2s-1,5.4-2.9,7.2c-2,1.8-4.7,2.8-8.3,2.8H160v13.7
		h-4.4V2z M166.5,18.3c2.6,0,4.3-0.6,5.3-1.9s1.5-2.8,1.5-4.5s-0.5-3.3-1.5-4.5s-2.8-1.8-5.3-1.8H160v12.7H166.5z M166.4,20.1
		l4.4-0.7l8.8,16.2h-4.9L166.4,20.1z"/>
	<path class="st0" d="M181.7,2h4.4l5.7,24.9c0.1,0.5,0.2,0.9,0.3,1.3c0.1,0.3,0.1,0.7,0.2,1.2h0.2c0.1-0.5,0.1-0.9,0.2-1.2
		c0.1-0.3,0.2-0.7,0.3-1.3L199.2,2h4.5l6.5,24.9c0.1,0.5,0.2,0.9,0.3,1.3s0.1,0.7,0.2,1.2h0.2c0.1-0.5,0.1-0.9,0.2-1.2
		c0.1-0.3,0.2-0.7,0.3-1.3L216.8,2h4.4l-8.3,33.8h-4.3l-6.5-24.9c-0.1-0.5-0.3-1-0.4-1.5c-0.1-0.5-0.2-1-0.3-1.5h-0.2
		c-0.1,0.5-0.2,1-0.3,1.5c-0.1,0.5-0.2,1-0.4,1.5l-6.5,24.9h-4.3L181.7,2z"/>
	<path class="st0" d="M226.4,2h4.4v33.6h-4.4V2z"/>
	<path class="st0" d="M236.9,26.1h4.4v0.3c0,2,0.7,3.6,2.1,4.6c1.4,1,3.3,1.5,5.7,1.5s4.3-0.5,5.7-1.6s2-2.4,2-4.1
		c0-1.5-0.6-2.8-1.9-3.7s-3.7-1.9-7.2-2.9c-3.7-1.1-6.3-2.3-7.8-3.7s-2.3-3.4-2.3-6.1s1-4.8,3-6.5c2-1.7,4.8-2.6,8.3-2.6
		c3.5,0,6.4,0.9,8.4,2.7c2.1,1.8,3.1,4.2,3.1,7v0.3h-4.4V11c0-1.8-0.6-3.2-1.8-4.3c-1.2-1.1-3-1.6-5.4-1.6c-2.4,0-4.1,0.5-5.2,1.4
		c-1.1,0.9-1.7,2.2-1.7,3.8c0,1.5,0.6,2.6,1.7,3.5s3.5,1.8,7.1,2.8c3.6,1,6.2,2.3,7.8,3.8c1.6,1.5,2.4,3.7,2.4,6.4s-1.1,5-3.2,6.8
		c-2.2,1.8-5.1,2.7-8.8,2.7c-3.7,0-6.7-0.9-8.9-2.7s-3.3-4.2-3.3-7.2V26.1z"/>
	<path class="st0" d="M266.9,2H288v3.6h-16.7v10.8h14.5v3.6h-14.5v11.9h16.9v3.6h-21.3V2z"/>
</g>
</svg>
